<svg xmlns="http://www.w3.org/2000/svg" viewBox="0 0 384.01 287.99"><defs><style>.cls-1{fill:#fff;}</style></defs><title>Asset 46</title><g id="Layer_2" data-name="Layer 2"><g id="Layer_1-2" data-name="Layer 1"><path class="cls-1" d="M384,253.5c-.59,2.15-1.11,4.32-1.77,6.45a39.92,39.92,0,0,1-38,28Q192,288,39.71,288A39.71,39.71,0,0,1,.05,248.43Q-.06,144,.05,39.56A39.7,39.7,0,0,1,39.72,0Q192,0,344.2,0a39.85,39.85,0,0,1,39,32c.18.85.51,1.65.77,2.48ZM192,271.93q75,0,150,0c16,0,26-9.72,26-25.51q.1-102.36,0-204.73c0-15.72-9.83-25.58-25.5-25.59Q192.06,16,41.7,16.09c-15.72,0-25.58,9.82-25.6,25.48q-.09,102.38,0,204.74a31,31,0,0,0,1.52,9.91c3.48,10.16,12.38,15.7,24.68,15.7Q117.14,272,192,271.93Z"/><path class="cls-1" d="M120,176.14c-10.62,0-21.23-.06-31.85,0-13.13.1-23,9.28-23.9,22.43-.42,6.1-.09,12.24-.43,18.34a7.75,7.75,0,0,1-7,7.12,8.19,8.19,0,0,1-8.26-5.21,4,4,0,0,1-.42-1.42c.3-9-.53-18.16,1.21-26.83C52.89,172.85,68.8,160.26,87,160c22-.35,44-.41,65.95,0s38.91,18.18,39,40.19c0,5,0,10,0,15,0,5.26-3.39,9-8,8.94-4.43,0-7.81-3.55-8-8.65-.15-4.61,0-9.24-.06-13.86-.18-15.69-10-25.41-25.57-25.45C140.24,176.12,130.13,176.14,120,176.14Z"/><path class="cls-1" d="M160,104.08A40,40,0,1,1,120.1,63.87,39.92,39.92,0,0,1,160,104.08ZM119.92,80.16A23.86,23.86,0,1,0,144,104.09,23.93,23.93,0,0,0,119.92,80.16Z"/><path class="cls-1" d="M279.81,224.14c-15.36,0-30.73,0-46.09,0-3.77,0-6.94-1-8.81-4.49a7.93,7.93,0,0,1,5.33-11.47,15.31,15.31,0,0,1,3.71-.33q46.08,0,92.18,0c5.58,0,9.11,2.47,9.79,6.75.87,5.4-3,9.49-9.27,9.51-15,0-30,0-45,0Z"/><path class="cls-1" d="M280.16,96H233.33c-5.77,0-9.26-3-9.29-7.93S227.42,80,233.21,80q46.85-.08,93.67,0c5.79,0,9.18,3.22,9.11,8.15S332.39,96,326.62,96Z"/><path class="cls-1" d="M280.15,144H326.6c5.79,0,9.31,3,9.39,7.84s-3.31,8.16-9.1,8.17q-46.83.1-93.66,0c-5.8,0-9.21-3.17-9.19-8.08s3.51-7.93,9.27-7.93Q256.72,144,280.15,144Z"/></g></g></svg>