<svg xmlns="http://www.w3.org/2000/svg" viewBox="0 0 75.39 75.38"><defs><style>.cls-1{fill:#52ba63;}</style></defs><title>Asset 38</title><g id="Layer_2" data-name="Layer 2"><g id="Layer_1-2" data-name="Layer 1"><path class="cls-1" d="M49.84,57.08V49.26a5.2,5.2,0,0,0,0-.68,1.21,1.21,0,0,0-2.41,0c0,.23,0,.46,0,.69V64.39H45V61.62c0-.3,0-.61,0-.91a1.27,1.27,0,0,0-1.22-1.14,1.22,1.22,0,0,0-1.18,1.17c0,1.32,0,2.64,0,3.95,0,.21.26.46.46.6C45,66.62,47,68,49,69.25a1.71,1.71,0,0,1,.88,1.62c0,1.46,0,2.93,0,4.44h-2.4V71.45c-1.25.59-2.38,1.1-3.47,1.67-.63.33-1.2.76-1.8,1.14a6.81,6.81,0,0,1-8.57-.89,6.72,6.72,0,0,1-.82-8.63,19.34,19.34,0,0,0,3.48-8.07,16.84,16.84,0,0,0-3.12-12.62.75.75,0,0,0-.56-.27c-1,0-2,0-3,0a.77.77,0,0,0-.56.47,11.14,11.14,0,0,1-9.23,9.13,11,11,0,0,1-12.35-8.9c-.09-.57-.27-.75-.85-.74-1.72,0-3.44,0-5.16,0-1,0-1.46-.42-1.46-1.48V27c0-.94.22-1.24,1.15-1.5,5.21-1.5,10.43-3,15.64-4.52a2,2,0,0,0,1-.76q4.82-7.36,9.57-14.77A11.09,11.09,0,0,1,37.41,0c6.36,0,12.71,0,19.07,0a10.81,10.81,0,0,1,10.38,6.9q2.72,6.5,5.37,13c.21.53.44.82,1.08.75a19,19,0,0,1,2,0v2.4c-1.28,0-2.59.07-3.89,0-.35,0-.78-.61-1-1-1.93-4.58-3.81-9.19-5.71-13.78a8.53,8.53,0,0,0-8.64-5.78c-6.2,0-12.41,0-18.61,0a8.88,8.88,0,0,0-8.06,4.36C26.2,11.89,22.88,17,19.61,22A2.69,2.69,0,0,1,18,23.26c-3.36.93-6.7,1.91-10.06,2.84a.74.74,0,0,0-.64.88c0,1.88,0,3.75,0,5.63,0,1-.43,1.42-1.43,1.43H2.48V41.3H7.23c1.46-6.19,5.15-9.94,11.7-9.6,5.83.3,9.07,4,10.26,9.6h2.37a19.52,19.52,0,0,1,.32-3.49A6.75,6.75,0,0,1,42.22,34a21.34,21.34,0,0,0,6.62,3.1,18.64,18.64,0,0,0,15.34-2.75,7.49,7.49,0,0,1,4.36-1.51,6.82,6.82,0,0,1,5.88,10.26c-.27.49-.6.94-.91,1.4a16.75,16.75,0,0,0,0,19.23,8.51,8.51,0,0,1,1.82,4.88,6.82,6.82,0,0,1-10.24,5.85l-.66-.38-.08,1.26H62V73.39c0-1.29,0-2.58,0-3.87a1.82,1.82,0,0,1,.53-1.25,5,5,0,0,0,1.92-4.73c-.16-3.1,0-6.22,0-9.34,0-.18,0-.35,0-.53a1.29,1.29,0,0,0-1.21-1.39A1.26,1.26,0,0,0,62,53.65c0,.89,0,1.77,0,2.66v.78H59.56V56.3c0-2.51,0-5,0-7.52a1.25,1.25,0,0,0-1.23-1.36,1.3,1.3,0,0,0-1.2,1.4v8.25H54.7v-.79c0-3.19,0-6.39,0-9.58,0-.27.06-.63-.09-.8A2.34,2.34,0,0,0,53.5,45a1,1,0,0,0-1.16.86,3.39,3.39,0,0,0-.08.9c0,3.37,0,6.73,0,10.1a.67.67,0,0,1,0,.19ZM62,50c3-.52,4.88,1,4.88,4,0,4.2,0,8.4,0,12.61a2.35,2.35,0,0,1-.54,1.33c-.46.59-1.06,1.08-1.58,1.63a1.24,1.24,0,0,0,.21,1.86c.51.32,1,.68,1.54,1a4.12,4.12,0,0,0,4.65-.29,3.89,3.89,0,0,0,1.66-4.39,14.15,14.15,0,0,0-1.63-3.13q-6.24-10.48,0-20.94c.37-.6.81-1.17,1.16-1.78a4.35,4.35,0,0,0-3-6.48,4.91,4.91,0,0,0-3.83,1,21.1,21.1,0,0,1-18.32,2.8A23.81,23.81,0,0,1,40.79,36a4.27,4.27,0,0,0-5.49.6A4.32,4.32,0,0,0,34.77,42c.32.51.67,1,1,1.52A19.07,19.07,0,0,1,38.26,59,20.43,20.43,0,0,1,35,65.88a4.28,4.28,0,0,0-.86,3.29,4.38,4.38,0,0,0,6.81,3c1.31-.81,2.67-1.52,4-2.28.08,0,.18-.06.35-.13-1.48-1-2.76-1.89-4.1-2.71a2,2,0,0,1-1.08-2c.08-1.44,0-2.88,0-4.33a3.5,3.5,0,0,1,2.6-3.42A12.64,12.64,0,0,1,45,57.14v-.75c0-2.58,0-5.17,0-7.75A3.59,3.59,0,0,1,48.7,45c.42,0,.84.1,1.24.14.87-1.71,1.87-2.5,3.24-2.57A3.73,3.73,0,0,1,57,45.18a3.78,3.78,0,0,1,3.9.87C62.05,47.13,62,48.52,62,50ZM18.26,51.06a8.51,8.51,0,1,0-8.54-8.48A8.59,8.59,0,0,0,18.26,51.06ZM4.83,27l-2.36.69v3.88H4.83Z"/><path class="cls-1" d="M45.54,23.1H26c-.61,0-1.17,0-1.5-.65a1.45,1.45,0,0,1,.24-1.55q4-6.49,8-13a6,6,0,0,1,5.49-3c5.95,0,11.91,0,17.86,0A6.09,6.09,0,0,1,62,8.9q2.37,6.11,4.7,12.23c.48,1.25,0,2-1.37,2ZM63.8,20.65c-.08-.24-.14-.45-.22-.66q-1.92-5-3.86-10A3.73,3.73,0,0,0,55.84,7.3H48.09c-.21,0-.43,0-.63,0V20.65Zm-18.87,0V7.3c-2.2,0-4.35,0-6.49,0a4.07,4.07,0,0,0-3.82,2.13c-2.13,3.53-4.31,7-6.47,10.54-.12.2-.23.42-.37.69l.45,0Z"/><path class="cls-1" d="M14.58,7.29c0,.73-.47,1.17-1.33,1.23a4.67,4.67,0,0,0-4,2.43,8.21,8.21,0,0,0-.69,2.37c-.14.79-.52,1.26-1.22,1.27s-1.16-.46-1.22-1.26a4.89,4.89,0,0,0-4.8-4.81C.47,8.45,0,8,0,7.31A1.19,1.19,0,0,1,1.26,6.09a4.88,4.88,0,0,0,4.81-4.8C6.14.48,6.58,0,7.28,0A1.21,1.21,0,0,1,8.51,1.27,4.89,4.89,0,0,0,13.3,6.09C14.11,6.15,14.57,6.59,14.58,7.29ZM9,7.29,7.28,5.6,5.56,7.3,7.29,9Z"/><path class="cls-1" d="M7.3,66.86c-.73,0-1.16-.47-1.23-1.33A4.85,4.85,0,0,0,2.62,61a8.41,8.41,0,0,0-1.42-.23A1.22,1.22,0,0,1,0,59.58a1.19,1.19,0,0,1,1.18-1.22c3-.3,4.62-1.9,4.9-4.88a1.21,1.21,0,0,1,2.42,0c.3,3,1.91,4.62,4.88,4.89a1.22,1.22,0,0,1,0,2.43c-3,.3-4.62,1.9-4.9,4.87A1.19,1.19,0,0,1,7.3,66.86Zm-1.68-7.3,1.63,1.71L9,59.61,7.33,57.86Z"/><path class="cls-1" d="M21.87,75.36c-.73,0-1.15-.46-1.21-1.34a4.83,4.83,0,0,0-3.4-4.47,9.29,9.29,0,0,0-1.49-.26,1.2,1.2,0,0,1-1.18-1.22,1.18,1.18,0,0,1,1.19-1.21c3-.28,4.59-1.89,4.88-4.89a1.22,1.22,0,0,1,2.43,0c.28,3,1.9,4.59,4.89,4.88a1.22,1.22,0,0,1,0,2.43c-3,.28-4.59,1.89-4.88,4.89A1.18,1.18,0,0,1,21.87,75.36Zm-1.66-7.29,1.64,1.64,1.66-1.6-1.61-1.7Z"/><path class="cls-1" d="M47.37,25.6v2.32H42.58V25.6Z"/><path class="cls-1" d="M66.81,25.58v2.33H62V25.58Z"/><path class="cls-1" d="M18.25,48.63a6.08,6.08,0,1,1,6.05-6.1A6,6,0,0,1,18.25,48.63Zm3.62-6.11a3.64,3.64,0,1,0-3.59,3.68A3.69,3.69,0,0,0,21.87,42.52Z"/></g></g></svg>