<svg xmlns="http://www.w3.org/2000/svg" viewBox="0 0 384.01 384.11"><title>Asset 38</title><g id="Layer_2" data-name="Layer 2"><g id="Layer_1-2" data-name="Layer 1"><path d="M0,136.61c1.27-7.46,1.94-15.09,3.89-22.36C19.9,54.76,57.8,16.72,117.9,3.4c81.19-18,158.48,37.64,174.32,116,13,64.54-20,129.9-80.2,159.65a147.14,147.14,0,0,1-72,15.62A138.08,138.08,0,0,1,94.13,285a5.66,5.66,0,0,0-6.06.68c-25.74,17.1-52.48,18.74-80,4.62-6.72-3.45-8.77-10.43-5-16.81,13.51-22.58,15.64-46.24,8-71.28-3.91-12.72-6.65-25.8-9.86-38.73-.54-2.16-.8-4.39-1.19-6.58ZM29.42,274.33c.28.1.73.27,1.18.42a16.75,16.75,0,0,0,1.79.55c17.63,3.5,33.51-.1,47.05-12.15,5-4.46,10-5.36,16.08-2.54a119.16,119.16,0,0,0,74.88,8.85c64.89-12.84,114-75.72,98.89-147.81C255.65,56.36,190,12.14,125,25.1,82.43,33.58,51.81,58,33.58,97.43c-9.2,19.89-12.91,41-9.49,62.77,1.82,11.63,5.24,23.07,8.63,34.38C38.6,214.19,41,233.9,35.87,254,34.14,260.83,31.62,267.47,29.42,274.33Z"/><path d="M331.5,384.11c-3.75-.82-7.54-1.49-11.24-2.48A72.18,72.18,0,0,1,295.72,370a5,5,0,0,0-5.38-.79q-80.92,28.9-148.63-24.09c-5.28-4.13-6.78-8.57-5.11-13.7,2.53-7.81,11.9-10.38,18.59-4.83a124.67,124.67,0,0,0,41.54,23.24c31,10,61.45,8.76,91.23-4.53,6.53-2.92,11.61-2,17,2.7,14,12.23,30.3,15.55,48.26,11.34a6.55,6.55,0,0,0,1-.42c.1-.05.17-.17.4-.41-1.85-5.26-4-10.54-5.56-16-6.09-21.59-4.87-42.85,2.87-63.91,16.68-45.37,10.88-87.48-18.88-125.91-5.84-7.54-3.59-16.78,4.91-19.3,4.84-1.44,9,.07,12.08,3.83a144.61,144.61,0,0,1,30.77,64.13c6.07,29.51,3.18,58.2-7.62,86.37-9,23.52-5.68,46.3,6.4,68.07a23,23,0,0,1,2.79,6.44c1,5.33-1.32,9.66-6.3,12.4a73.33,73.33,0,0,1-26.09,8.74,11,11,0,0,0-2.06.72Z"/><path d="M147.48,166.12A18.1,18.1,0,1,1,165.63,148,18.19,18.19,0,0,1,147.48,166.12Z"/><path d="M213.88,166.11a18.09,18.09,0,1,1,18.14-18A18.14,18.14,0,0,1,213.88,166.11Z"/><path d="M99,148.24a18,18,0,1,1-17.83-18.3A18.07,18.07,0,0,1,99,148.24Z"/></g></g></svg>