<svg xmlns="http://www.w3.org/2000/svg" viewBox="0 0 750.28 936.99"><defs><style>.cls-1{fill:#fff;}</style></defs><title>Asset 42</title><g id="Layer_2" data-name="Layer 2"><g id="Layer_1-2" data-name="Layer 1"><path class="cls-1" d="M67.7,937c-17.37-4.3-33.57-10.8-46.06-24.33C6.65,896.42,0,877.15,0,855.16Q.15,729.37,0,603.58,0,342.84.06,82.11C.06,48.68,14,23,44.4,8.32A82.15,82.15,0,0,1,78.65.42Q281.28-.38,483.93.18c42.62.08,75.24,31.56,77.88,73.91q.45,7.3.45,14.62,0,220.49-.14,441c0,7.32,2.1,12.43,7.29,17.54,30.2,29.75,60,59.86,90.09,89.75,2.35,2.34,5.43,3.95,8.68,6.25L643.79,665.8c-1.37-1.3-3.76-3.48-6-5.75q-72.5-72.42-145-144.84c-20.14-20.06-45.74-23.86-67.24-10.44-24.32,15.18-30.41,49.41-12.71,72a122.6,122.6,0,0,0,9.78,10.86q50.06,50.2,100.2,100.33c10.15,10.17,11,15.45,3.36,27.34-27.82,43.08-46.29,89.89-53.11,140.6-3.6,26.76-3.2,54.07-4.6,81.13ZM421.61,812.48H31.28c0,13.56,0,26.28,0,39,0,35.48,18.76,54.32,54.09,54.32q170.64,0,341.28,0H437c.22-2.92.44-5,.5-7,2.05-66.11,19.23-127.94,52.92-184.92,4.31-7.28,3.22-11.11-2.53-16.74-30.29-29.65-60.18-59.73-90.08-89.78C374.17,583.61,364.71,555.2,375,523c18.49-57.71,85.87-76.19,132.24-37.08,7.72,6.52,14.89,13.7,22.81,21V125.72H31.69V780.66H421.61ZM31.58,92.91H530.06c4.27-38.06-15.1-61.63-50.62-61.66q-198.45-.13-396.89.2a60.05,60.05,0,0,0-25.48,5.63C34.31,48.26,30,68.93,31.58,92.91Z"/><path class="cls-1" d="M717.34,937c.26-3.62.73-7.25.73-10.87,0-121.35-.28-242.7.22-364,.16-37.46-12.76-68-40.73-92.88-30.28-26.95-59.84-54.71-90.45-82.8l21.17-23.25c10,9.13,19.45,17.71,28.87,26.34q32,29.34,64.06,58.69c33,30.06,48.86,67.48,48.83,112q-.12,182.48,0,365c0,4,.17,7.91.26,11.87Z"/><path class="cls-1" d="M125.22,155.86c9.44,0,18.88-.12,28.32,0,20.4.32,33.45,12.28,34.14,32.61.69,20.07.68,40.2,0,60.28-.67,20.28-13.68,32.4-34.11,32.66-19.18.26-38.37.31-57.55,0-20.67-.35-33.52-13.47-33.67-34q-.2-28.77,0-57.55c.15-20.57,13-33.58,33.63-34C105.73,155.69,115.48,155.86,125.22,155.86Zm30.25,31.93c-19.25,0-37.5.1-55.74-.07-5.1-.05-6,2.5-6,6.82.15,11.27,0,22.54,0,33.81v20.46h61.67Z"/><path class="cls-1" d="M343.87,219.64c0,9.44.11,18.88,0,28.32-.29,19.64-12.69,32.86-32.33,33.39-20.08.55-40.2.49-60.28,0-19.3-.44-31.95-12.67-32.65-32.19-.73-20.38-.75-40.82,0-61.19.76-19.91,13.75-31.83,33.67-32.08q28.77-.37,57.54,0c21.15.25,33.85,13.28,34.05,34.5C343.94,200.15,343.87,209.9,343.87,219.64Zm-31.59,29.5c0-19.4.11-37.91-.17-56.4,0-1.64-2.49-4.64-3.86-4.66-19-.31-38.07-.21-57.26-.21v61.27Z"/><path class="cls-1" d="M62.34,686.74c0-9.74-.13-19.49,0-29.23.31-19.8,13.37-32.82,33.58-33.11,19.18-.27,38.37-.22,57.55,0,20.42.21,33.48,12.24,34.18,32.56.69,20.07.67,40.2,0,60.28-.66,20.29-13.66,32.43-34.07,32.7-19.18.26-38.38.3-57.55,0-20.69-.34-33.5-13.44-33.72-33.93C62.25,706.23,62.33,696.48,62.34,686.74Zm93.16-29.8H94.58v60.38H155.5Z"/><path class="cls-1" d="M343.87,687.49c0,9.75.13,19.49,0,29.23-.33,19.17-12.54,32.44-31.71,33-20.68.66-41.42.67-62.1,0-18.7-.62-30.86-13.16-31.49-32.39-.66-20.07-.66-40.2,0-60.27.67-20.35,13.68-32.48,34-32.72,19.18-.21,38.36-.24,57.54,0,20.68.28,33.49,13.29,33.75,33.86C344,668,343.87,677.75,343.87,687.49Zm-31.59,30.13c0-19.47.1-38-.18-56.47,0-1.62-2.53-4.58-3.92-4.61-19-.3-38.06-.2-57.17-.2v61.28Z"/><path class="cls-1" d="M375,218.19c0-10-.18-20.09,0-30.13.41-18.28,12.39-31.36,30.6-32,21-.69,42-.65,63,0,18.59.54,30.81,13.68,31,32.49q.38,30.12,0,60.26c-.24,18.89-12.17,31.81-31.06,32.47-20.67.72-41.41.67-62.08,0-19.31-.59-31.19-13.53-31.53-33C374.82,238.29,375,228.24,375,218.19Zm92.8,30.94V188.34h-61v60.79Z"/><path class="cls-1" d="M281.37,437.33c-10.65,0-21.32.2-32-.06-15.67-.38-29-10.84-29.84-26.48a686.19,686.19,0,0,1,0-72c.75-14.7,12.48-25.33,27.27-25.89,22.78-.84,45.65-.94,68.43,0,16.52.67,28.1,13.45,28.46,30,.47,21.31.52,42.64,0,63.94-.43,17.42-13.86,30.07-31.25,30.43C302.08,437.5,291.72,437.33,281.37,437.33Zm-30.2-93.13v61.44h60.49V344.2Z"/><path class="cls-1" d="M125.14,437.34c-10.35,0-20.71.15-31.06,0C76.64,437,63,424.38,62.53,407.16q-.81-32.42,0-64.85c.4-16,12.12-28.75,28.14-29.4,22.79-.93,45.66-.89,68.45-.05,15.27.57,26.89,11.25,27.67,26.53a666.7,666.7,0,0,1-.07,71.11c-.9,16.09-14.28,26.49-30.52,26.8C145.85,437.49,135.5,437.34,125.14,437.34ZM94.6,344.17v61.31h60.54V344.17Z"/><path class="cls-1" d="M124.81,468.57c10.66,0,21.32-.17,32,0,15.66.3,29,10.73,29.89,26.38a678.13,678.13,0,0,1,0,72c-.79,15.07-12.84,25.53-28.13,26-22.19.71-44.45.78-66.64,0-17-.57-29-13.28-29.4-30.13Q61.81,531,62.5,499c.4-17.32,13.94-30.09,31.26-30.38C104.11,468.42,114.46,468.57,124.81,468.57ZM94.54,500v61.4h60.63V500Z"/><path class="cls-1" d="M343.85,531c0,10,.18,20.1,0,30.14-.39,18.51-12.09,31.46-30.42,32.06-21.59.71-43.24.65-64.82,0-16.61-.53-28.46-11.2-29.36-27.94a621.79,621.79,0,0,1,0-68.4c1-17.73,14.14-28.1,32-28.2q30.14-.16,60.28,0c18.45.13,31.66,12.92,32.23,31.31C344.11,510.24,343.84,520.6,343.85,531ZM311.6,561.68V500.29H251v61.39Z"/><path class="cls-1" d="M499.65,375c0,10.65.27,21.31-.06,31.95-.54,17.13-13.22,30-30.17,30.31q-32,.52-63.93,0c-17-.25-30-13.06-30.32-30.1q-.6-32.42,0-64.83c.3-16.13,11.63-28.73,27.84-29.4,22.78-.94,45.65-1,68.42,0,16.63.68,27.66,13.39,28.15,30.13C499.91,353.65,499.66,364.31,499.65,375Zm-92.71-30.61v61.07h61.13V344.36Z"/><path class="cls-1" d="M296.35,843.83v30.24H266V843.83Z"/></g></g></svg>