<svg xmlns="http://www.w3.org/2000/svg" viewBox="0 0 384.08 382.81"><title>Asset 39</title><g id="Layer_2" data-name="Layer 2"><g id="Layer_1-2" data-name="Layer 1"><path d="M384.08,157.83c-4.2,8-10.27,11-16.78,8-2.41-1.13-4.5-3-7.23-4.83v4.69q0,90,0,180c0,19.14-11.93,33.49-30.63,36.81a34,34,0,0,1-6,.35q-131.43,0-262.85,0c-20.79,0-36.49-15.72-36.5-36.51q-.06-71.25,0-142.49c0-7.68,4.88-12.94,11.93-13s12,5.27,12,12.88q0,70.11,0,140.23c0,10.39,4.46,14.89,14.77,14.89H120.1v-4.76q0-62.81,0-125.61c0-22.34,15.29-37.62,37.64-37.63q34.68,0,69.37,0c21.34,0,36.94,15.54,36.95,36.82q0,63.18,0,126.36v4.62c.89.08,1.48.19,2.07.19,19,0,38,.05,57,0,7.84,0,12.93-5.09,12.93-12.93q.06-101.43-.1-202.85c0-1.7-1.56-3.82-3-5q-45.54-38.16-91.24-76.14-19.58-16.32-39.16-32.64c-8.33-6.95-12.67-6.92-21,.05Q101.66,95.91,21.78,162.53c-3.76,3.14-7.68,5.24-12.64,4a11.44,11.44,0,0,1-8.77-8.85,11.58,11.58,0,0,1,4.05-12.13q12.5-10.47,25-20.89,69-57.48,138-114.95c15.51-12.94,33.92-12.92,49.42.05q36.66,30.64,73.44,61.18c1,.86,2.12,1.67,3.83,3,0-7.54-.08-14.45,0-21.36a12,12,0,0,1,23.93.11c.06,12.5.09,25,0,37.5a7.19,7.19,0,0,0,2.86,6.35q27.92,23,55.58,46.31c3,2.5,5.11,6,7.63,9Zm-144,200.85v-3.24q0-63.53,0-127.06c0-8.7-5-13.56-13.82-13.56q-33.93,0-67.85,0c-9.81,0-14.35,4.6-14.35,14.52V358.68Z"/></g></g></svg>