<svg xmlns="http://www.w3.org/2000/svg" viewBox="0 0 356.53 356.91"><defs><style>.cls-1{fill:#fff;}</style></defs><title>Asset 40</title><g id="Layer_2" data-name="Layer 2"><g id="Layer_1-2" data-name="Layer 1"><path class="cls-1" d="M128.76,234c-1.18-2-2-3.48-2.89-5-16.12-27.24-30.2-55.4-38.52-86.12-5-18.42-8.23-37.12-5.8-56.25,4.55-35.88,23.23-62.27,55.86-77.45C195.12-17.61,261.43,16.58,274,79c3.65,18.22,1.63,36.33-2.37,54.25-7.21,32.36-21.32,61.89-37.76,90.43-1.86,3.22-3.76,6.43-5.93,10.15,1.7.08,3,.19,4.27.19,24.75,0,49.5.06,74.24-.06,4.09,0,6.38,1.43,7.85,5.32q20.6,54.37,41.43,108.66c2.22,5.82.08,9-6.13,9q-171.36,0-342.71,0c-5.95,0-8.17-3.22-6.06-8.76q20.79-54.49,41.56-109c1.41-3.73,3.6-5.2,7.55-5.18,24.75.11,49.5.05,74.24.05ZM178,286.08c14.81-16.78,41.69-57.6,55.83-84.6,11.78-22.48,21.76-45.68,27.32-70.57,3.64-16.31,5.58-32.78,2.46-49.39C255,35.38,211.74,4.91,165,11.82c-42.6,6.3-74.57,44.29-73.58,87.36.53,22.88,6.25,44.6,14.51,65.76,13.25,33.92,31.77,64.94,52.62,94.63C164.75,268.43,171.35,277,178,286.08ZM51.69,244.55,12.88,346.32h4.71c10.87,0,21.77-.51,32.6.13a104.88,104.88,0,0,0,47.73-8.1c12.59-5.28,25.71-9.32,38.81-14a14.57,14.57,0,0,0-1-1.84q-29.24-38-58.53-76a5.07,5.07,0,0,0-3.28-1.92C66.57,244.47,59.2,244.55,51.69,244.55Zm259.83,17.66c-1.85-4.95-3.66-9.32-5.12-13.81-.93-2.87-2.31-4-5.54-3.94q-38.06.24-76.11,0c-2.7,0-4.18.89-5.73,3.07q-17.21,24.06-34.76,47.89c-4.4,6-7.58,6-11.94.06q-17.65-24-35-48.19c-1.38-1.92-2.63-2.85-5.09-2.82-13.12.13-26.25.06-39.37.06-.94,0-1.88.09-3.3.15.83,1.25,1.31,2.08,1.89,2.83,18,23.47,36.15,46.9,54.08,70.45,1.84,2.41,3.37,2.12,5.67,1.3q63.56-22.69,127.16-45.3Zm-28.72,84c-.66-1.05-.94-1.59-1.3-2.07-11.49-14.94-23-29.85-34.43-44.86-1.62-2.15-3-1.75-5.07-1q-64.92,23.13-129.86,46.17c-1.09.39-2.12,1-3.92,1.79Zm-26.73-53c.51.83.76,1.38,1.12,1.85,12.63,16.42,25.23,32.86,38,49.19a6.29,6.29,0,0,0,4.36,2c13.61.15,27.21.09,40.82.07.93,0,1.86-.15,3.21-.28l-28.19-73.91Z"/><path class="cls-1" d="M178,141.84c-25-.28-44.32-20.15-44-45.25.32-24.65,20.42-43.64,45.87-43.35,23.63.27,42.93,20.62,42.7,45A44.23,44.23,0,0,1,178,141.84Zm.39-10.57a33.78,33.78,0,1,0-33.88-33.75A33.81,33.81,0,0,0,178.37,131.27Z"/></g></g></svg>