<svg xmlns="http://www.w3.org/2000/svg" viewBox="0 0 326.04 326.12"><defs><style>.cls-1{fill:#52ba63;}</style></defs><title>Asset 39</title><g id="Layer_2" data-name="Layer 2"><g id="Layer_1-2" data-name="Layer 1"><path class="cls-1" d="M151.62,112a1.55,1.55,0,0,0-.85.27,1.83,1.83,0,0,0-.55.66l.39.21Z"/><path class="cls-1" d="M287.65,1.54c-3.13-1.7-6.14-1.95-8.27-.68s-3.33,4-3.34,7.52V23.74c0,10.45,0,21.26-.05,31.89,0,2-.46,6.8-4.39,8.22-1.64.59-3.31,1.36-5.08,2.18-7,3.22-15.66,7.23-25.59.51a15.79,15.79,0,0,0-4.41-1.7c-3-.85-6.6-3.13-6.56-9.22.1-16.91.08-33.72,0-47.94,0-3-1.22-5.44-3.31-6.71a6.62,6.62,0,0,0-3.42-.92A9.32,9.32,0,0,0,219,1.18,72.13,72.13,0,0,0,180.22,61a72,72,0,0,0,30.52,64.19,11.7,11.7,0,0,1,5.35,10.53c-.07,20-.06,40.36-.06,60v34.9c0,18.75,0,38.15,0,57.22a50.37,50.37,0,0,0,.7,8.46,37,37,0,0,0,41.84,29.29C278,322,290,307.56,290,287.9c0-55.61,0-105.51,0-152.56,0-3.18.56-6.82,4.71-9.71a72.88,72.88,0,0,0-7-124.09Zm-7.23,116.32c-3.19,1.84-4.43,4.07-4.42,7.94.06,49.29.05,99.4,0,147.85v13.72c0,11.71-6.37,20.79-16.61,23.69A23.35,23.35,0,0,1,253,312a22.77,22.77,0,0,1-13.18-4.18,23.39,23.39,0,0,1-9.79-17.72c-.07-1.2-.06-2.33-.05-3.43v-1q0-18.6,0-37.19c0-39.78,0-80.92.1-121.39,0-5-1.53-7.6-5.91-10A58.67,58.67,0,0,1,204,33.1c.55-.82,1.11-1.53,1.83-2.42.36-.46.78-1,1.27-1.63l9-11.57v25c0,8,0,15.67,0,23.31,0,4.66,1.26,6.52,5.6,8.27s8.39,3.37,12.58,5c5.07,2,10.14,4,15.19,6.1a8.85,8.85,0,0,0,7.13,0q8.11-3.27,16.23-6.5,5.94-2.37,11.89-4.76c3.88-1.56,5.44-3.87,5.39-8C290,59.12,290,52.15,290,45.4q0-4.35,0-8.7v-19L298.94,29c7.12,9,11.15,18.31,12.31,28.37C314.29,83.92,303.92,104.27,280.42,117.86Z"/><path class="cls-1" d="M189.42,301.11c-5.11-1.39-7.77,3.18-9.09,7.26l-1.13,3.45H145.65l-1.06-12.9c-.52-6.31-1-12.56-1.54-18.8-.47-5.87-4.06-6.74-5.25-7a127,127,0,0,1-34.74-14.36c-2.86-1.69-5.42-1.43-8.3.85-.9.71-1.79,1.49-2.73,2.3l-1.41,1.23L70.53,280.24,45.76,255.58l3-3.52,5.13-6c4-4.65,8.14-9.47,12.16-14.28,2.86-3.42,3.07-6,.79-9.72a120.59,120.59,0,0,1-13.7-33c-1-4-3-5.67-7.21-6l-19.68-1.65-12-1V145.68l12.93-1.06c6.41-.53,12.74-1,19.08-1.58,3.8-.32,6-2.08,6.82-5.53a123.24,123.24,0,0,1,14.12-34.08c1.89-3.15,1.64-5.73-.87-8.89-.72-.9-1.48-1.79-2.29-2.72l-1-1.15L45.72,70.42,70.44,45.74l9.41,8c4.84,4.14,9.75,8.34,14.68,12.52,3,2.51,5.66,2.81,8.75,1A125,125,0,0,1,137.7,53c2.09-.51,4.93-1.79,5.34-7,.52-6.44,1.06-12.88,1.6-19.43l1-12.61h4.61l4.34,0c3.07,0,6,.05,8.87,0A6.82,6.82,0,0,0,170,7,6.81,6.81,0,0,0,163.4.08C158.71,0,153.86,0,149,.08c-8.81.19-16.92,7.8-17.7,16.61l-.23,2.55c-.45,5-.92,10.16-1.18,15.19a8.22,8.22,0,0,1-5.75,7.83c-5.73,2.25-12.38,4.89-18.74,7.77a8.57,8.57,0,0,1-10-1.53C91.86,45.36,87.91,42,83,37.88c-8.08-6.75-18.52-6.48-26,.67-6.37,6.1-12.56,12.29-18.4,18.4-7.16,7.5-7.46,17.94-.75,26,1.31,1.57,2.65,3.12,4,4.67,2.32,2.69,4.72,5.47,7,8.36a9.86,9.86,0,0,1,1.2,9c-1.43,3.79-3,7.56-4.51,11.21-1.07,2.59-2.19,5.27-3.23,7.9a8.25,8.25,0,0,1-7.76,5.83c-4.45.21-9,.61-13.45,1l-3.91.34A18.75,18.75,0,0,0,.06,149.58c-.08,8.93-.08,18,0,26.92a18.72,18.72,0,0,0,17.09,18.3l4.39.38c4.27.38,8.68.77,13,1A8.26,8.26,0,0,1,42.26,202c1,2.62,2.12,5.22,3.2,7.83,1.52,3.67,3.1,7.47,4.54,11.28a9.88,9.88,0,0,1-1.22,9c-2.3,2.94-4.74,5.77-7.1,8.51q-1.95,2.25-3.87,4.53c-6.66,8-6.42,18.29.59,25.72,6.14,6.5,12.49,12.85,18.89,18.87,7.32,6.91,17.55,7.16,25.46.64,1.79-1.48,3.59-3,5.34-4.54,2.56-2.2,5.21-4.47,7.94-6.63a9.39,9.39,0,0,1,5.68-1.81,8.5,8.5,0,0,1,3.05.53c6.41,2.47,12.92,5.17,19.89,8.25a9,9,0,0,1,5,6.82c.48,4.31.82,8.67,1.15,12.88l.39,4.81A18.92,18.92,0,0,0,149.7,326c8.37.07,17.05.08,26.55,0a19.2,19.2,0,0,0,18.43-15.5C195.57,305.76,193.6,302.24,189.42,301.11Z"/><path class="cls-1" d="M158,90.6a7.27,7.27,0,0,0-7.92-5.6A79,79,0,0,0,163,242h.15a68,68,0,0,0,25.28-4.25,10.77,10.77,0,0,0,4.28-2.85,6.55,6.55,0,0,0,0-8.08c-1.89-2.64-4.95-3.54-8.41-2.44a67.58,67.58,0,0,1-29.41,3,64.92,64.92,0,0,1-28.31-118.24c7.21-4.86,15.69-8.26,25.91-10.38A7,7,0,0,0,158,90.6Z"/></g></g></svg>