<svg xmlns="http://www.w3.org/2000/svg" viewBox="0 0 41.84 51.06">
  <defs>
    <style>
      .cls-1 {
        fill: #53ba63;
      }

      .cls-2 {
        fill: #55ba64;
      }
    </style>
  </defs>
  <title>Asset 1</title>
  <g id="Layer_2" data-name="Layer 2">
    <g id="Layer_1-2" data-name="Layer 1">
      <g>
        <path class="cls-1" d="M17.72,51.06c0-.09-.12-.05-.18-.05-2.69-.09-5.38-.26-8-.58A39.36,39.36,0,0,1,2,48.92c-.22-.07-.43-.17-.66-.23a1.56,1.56,0,0,1-1-1.09A5.75,5.75,0,0,1,0,46a30.73,30.73,0,0,1,.12-3.18,32.84,32.84,0,0,1,.56-4.64,19.77,19.77,0,0,1,2.67-7,5.86,5.86,0,0,1,1.93-1.71,14.44,14.44,0,0,1,2.77-1.11,24.08,24.08,0,0,0,4.81-2.14.75.75,0,0,1,1,0,.93.93,0,0,1,.47.92c-.06,1.82-.07,3.64-.11,5.47a1.42,1.42,0,0,0,.1.53L20,48.37a.93.93,0,0,0,.76.71.84.84,0,0,0,1-.62c.5-1.31,1-2.62,1.49-3.94l4.26-11.39a1,1,0,0,0,.08-.45c0-1.95-.06-3.91-.11-5.86a.41.41,0,0,1,.21-.4c.26-.16.5-.45.76-.47s.51.27.76.42a27.92,27.92,0,0,0,4.11,1.82c.78.29,1.6.5,2.37.84a10.31,10.31,0,0,1,1.45.81,6.28,6.28,0,0,1,2,2.46,21.45,21.45,0,0,1,2.11,6.47,52.83,52.83,0,0,1,.57,6.4c0,.07,0,.16.05.21v.31c-.1.07-.05.18-.05.26a5.81,5.81,0,0,1-.31,1.76,1.47,1.47,0,0,1-.91.94l-1.1.38a40.08,40.08,0,0,1-7.11,1.39c-2.68.33-5.38.5-8.08.58-.07,0-.15,0-.2.06Z"/>
        <path class="cls-1" d="M31.11,8.56a12.81,12.81,0,0,1-.64,3.65.35.35,0,0,0,.11.41A1.55,1.55,0,0,1,31,13.79a6.62,6.62,0,0,1-.75,3.5,5.44,5.44,0,0,0-.43,1.14,13.12,13.12,0,0,1-4.67,7.23A7.36,7.36,0,0,1,21,27.23a5.89,5.89,0,0,1-3.3-.88A12,12,0,0,1,11.83,18a1,1,0,0,0-.19-.44A3.78,3.78,0,0,1,11,15.87a7.28,7.28,0,0,1-.25-2.37,1.41,1.41,0,0,1,.46-1c.13-.1.08-.21.05-.33a15.9,15.9,0,0,1-.45-2.66,8.26,8.26,0,0,1,1.5-5.45,8.76,8.76,0,0,1,5-3.8,8.55,8.55,0,0,1,2-.29,13.07,13.07,0,0,1,5.05,1,14,14,0,0,1,3.84,2A7.11,7.11,0,0,1,31,7.29,6.67,6.67,0,0,1,31.11,8.56Z"/>
        <path class="cls-2" d="M18.41,28.86a9.93,9.93,0,0,0,1.88.37,8.54,8.54,0,0,0,2.93-.31l.23-.05c-.7,1.08-1.38,2.13-2.09,3.18-.15.23-.15.35.06.55.58.52,1.13,1.08,1.69,1.62a.33.33,0,0,1,.12.34l-1.38,8.36c-.24,1.42-.46,2.84-.7,4.26a.51.51,0,0,1,0,.13c0,.14-.09.26-.25.25s-.21-.13-.23-.27c-.07-.44-.15-.87-.22-1.31C20,43.16,19.5,40.34,19,37.51l-.48-2.9a.42.42,0,0,1,.15-.43c.59-.55,1.16-1.12,1.75-1.67a.23.23,0,0,0,0-.35l-2.13-3.27Z"/>
      </g>
    </g>
  </g>
</svg>
